{"glyphs":{"0":{"ha":721,"x_min":54,"x_max":667,"o":"m 407 1013 q 632 863 543 1013 q 667 697 667 786 l 667 589 q 350 -19 603 92 l 290 -19 q 54 261 125 -19 l 54 344 q 315 988 54 814 q 407 1013 388 1013 m 144 271 q 256 92 193 100 l 268 92 q 556 501 444 97 q 572 711 572 592 l 572 757 q 494 890 572 825 q 286 838 415 956 q 144 271 157 719 z "},"1":{"ha":771,"x_min":136,"x_max":635,"o":"m 493 1013 q 635 914 556 1013 q 435 76 526 606 q 385 -25 418 -25 l 375 -25 q 347 22 353 -19 q 515 903 350 247 l 504 903 q 168 643 413 888 l 157 643 q 136 675 136 643 q 493 1013 401 1013 z "},"2":{"ha":781,"x_min":54,"x_max":726,"o":"m 435 1010 q 651 803 651 908 q 304 322 651 746 q 174 85 176 149 q 663 171 447 85 l 683 171 q 726 128 700 171 l 726 94 q 185 -25 526 -25 q 76 85 131 -25 q 413 608 76 163 q 532 868 532 819 l 510 879 l 413 879 q 65 683 242 879 l 54 706 q 315 965 54 811 q 435 1010 350 985 z "},"3":{"ha":732,"x_min":54,"x_max":678,"o":"m 393 1007 q 558 819 558 956 q 376 592 558 711 q 524 549 369 594 q 678 353 678 439 l 678 319 q 524 79 649 190 q 253 -14 399 -32 q 54 154 149 -14 l 76 165 q 201 60 122 60 l 231 60 q 594 382 489 76 l 594 404 q 399 496 594 496 q 157 478 196 478 l 139 507 q 196 535 139 521 q 475 882 475 776 l 475 914 q 413 944 464 944 l 401 944 q 133 819 263 944 l 100 819 l 100 860 q 350 1007 242 1007 l 393 1007 z "},"4":{"ha":806,"x_min":54,"x_max":751,"o":"m 583 1036 q 608 1007 583 1031 l 608 988 l 575 944 q 613 885 610 936 l 613 874 l 583 493 q 726 526 711 504 l 751 526 l 751 496 q 567 372 640 396 q 518 -35 543 -32 q 483 -6 501 -35 l 499 369 q 318 401 342 404 q 131 315 233 399 l 119 315 q 63 364 106 313 q 410 897 54 538 q 583 1036 553 1036 m 182 447 q 293 483 239 483 q 496 450 432 447 q 521 900 515 507 q 182 447 174 615 z "},"5":{"ha":760,"x_min":54,"x_max":706,"o":"m 296 1013 q 456 939 367 933 l 489 939 q 646 982 546 942 l 657 982 q 706 939 675 982 q 553 825 683 876 q 385 876 543 825 l 342 874 q 233 526 299 868 q 453 618 376 615 q 610 450 564 624 l 613 426 q 315 -32 638 76 l 265 -35 q 57 94 165 -40 l 54 119 q 74 144 54 142 q 225 32 82 51 q 513 233 379 40 q 546 458 553 364 l 538 529 q 492 561 538 540 q 211 410 375 556 l 201 407 q 151 453 185 407 l 151 478 q 285 1013 208 882 l 296 1013 z "},"6":{"ha":651,"x_min":54,"x_max":597,"o":"m 447 1033 q 469 1010 469 1031 l 469 963 q 149 350 193 618 q 367 481 285 475 q 586 358 507 481 l 597 274 q 310 -28 526 -17 l 239 -37 q 54 179 103 -17 q 413 1033 54 600 l 447 1033 m 125 157 l 125 146 q 160 54 125 60 l 247 38 q 439 128 382 29 q 501 281 496 228 q 495 350 507 333 q 415 369 483 367 l 390 369 q 146 157 265 388 l 125 157 z "},"7":{"ha":749,"x_min":54,"x_max":694,"o":"m 553 1025 q 694 885 694 963 q 467 -28 594 757 q 444 -60 467 -60 q 390 17 413 -51 q 586 917 510 651 l 553 917 q 142 732 385 917 l 97 732 q 54 776 82 732 q 553 1025 404 1004 z "},"8":{"ha":651,"x_min":54,"x_max":597,"o":"m 375 1022 q 558 851 529 996 q 513 665 567 763 q 388 475 489 643 q 597 179 597 319 q 288 -37 526 -37 q 54 179 54 -3 l 54 201 q 288 521 54 313 q 201 600 206 567 q 103 806 103 722 q 336 1022 144 1022 l 375 1022 m 201 726 q 257 621 201 692 q 391 631 313 550 q 453 885 469 711 q 388 953 436 942 l 376 953 q 201 774 201 931 l 201 726 m 336 439 q 117 128 117 222 q 219 29 131 29 l 256 29 q 493 219 486 71 l 499 244 q 336 439 499 315 z "},"9":{"ha":667,"x_min":54,"x_max":613,"o":"m 318 1007 q 606 657 613 1004 l 606 603 q 228 -46 586 307 l 171 -57 l 149 -25 q 475 518 265 -25 q 250 410 331 410 q 60 703 54 458 q 307 1007 60 933 l 318 1007 m 139 626 q 231 507 182 507 l 253 507 q 486 615 325 492 l 499 615 l 499 692 q 385 908 499 908 l 364 908 q 139 681 199 908 l 139 626 z "},"A":{"ha":968,"x_min":51,"x_max":857,"o":"m 743 1014 q 857 942 786 1014 q 846 792 846 840 q 828 19 846 553 l 803 6 l 783 6 q 749 51 754 6 q 779 247 779 97 l 779 347 q 290 196 290 276 q 168 -82 201 -82 l 157 -82 q 103 -29 142 -82 l 103 -17 q 231 199 231 128 q 188 182 206 182 q 51 318 119 206 l 82 331 q 149 301 117 301 l 179 301 q 376 472 325 301 q 722 1014 492 719 l 743 1014 m 353 342 q 724 429 672 429 l 735 429 q 779 396 740 429 l 779 765 q 765 876 779 876 q 353 342 553 776 z "},"B":{"ha":944,"x_min":76,"x_max":874,"o":"m 692 1004 q 833 871 833 960 l 833 860 q 717 654 833 839 l 708 597 l 708 549 q 863 288 708 504 q 874 247 863 279 q 575 -51 874 68 q 447 -62 569 -51 q 333 65 364 -62 l 364 65 q 436 -3 396 -3 l 447 -3 q 774 301 774 68 l 783 301 q 649 515 783 313 q 618 646 618 564 q 735 893 618 689 l 735 925 l 700 933 q 483 840 483 897 q 288 151 288 379 q 247 -111 276 151 l 222 -111 q 188 -79 206 -111 q 322 763 188 139 q 125 575 256 732 l 76 575 l 76 592 q 356 863 168 722 q 375 928 356 882 q 364 963 364 947 q 375 979 375 963 l 458 925 q 654 1004 583 1004 l 692 1004 z "},"C":{"ha":949,"x_min":71,"x_max":914,"o":"m 782 806 q 492 524 782 592 q 467 550 467 524 q 724 825 724 700 q 556 911 724 897 q 182 469 407 897 q 165 333 165 385 l 165 261 q 279 35 206 35 q 372 25 328 25 q 888 339 610 25 l 914 325 q 493 -79 649 -79 q 426 -86 481 -86 l 418 -86 q 82 250 182 -86 q 71 333 71 285 q 184 720 92 583 q 372 935 276 857 q 632 976 467 1013 q 782 806 797 939 z "},"D":{"ha":1029,"x_min":65,"x_max":953,"o":"m 372 1022 q 458 950 390 1022 l 501 950 q 925 667 757 950 q 953 564 953 606 l 953 499 q 678 76 953 151 l 483 76 q 225 -119 369 76 l 211 -119 q 151 -22 151 -85 q 318 836 157 242 l 318 836 q 100 600 247 825 l 89 600 q 65 624 65 600 l 65 643 q 288 931 168 893 q 358 953 358 939 l 358 957 q 313 982 313 957 l 313 990 q 342 1022 313 1007 l 372 1022 m 228 3 q 501 142 339 142 q 822 307 754 142 q 896 535 896 436 q 649 854 896 771 q 493 874 600 874 q 396 811 415 874 q 228 35 228 301 l 228 3 z "},"E":{"ha":979,"x_min":68,"x_max":897,"o":"m 610 960 q 849 783 774 960 q 638 675 849 675 q 575 722 575 697 l 575 746 q 751 825 692 746 l 751 849 l 686 857 l 618 857 q 233 638 393 857 q 225 600 225 621 l 225 578 q 336 464 225 507 q 464 501 442 501 l 518 450 l 518 435 q 290 319 507 418 q 128 122 128 199 l 128 85 q 393 -3 217 -3 q 885 222 654 -3 q 897 182 897 196 q 399 -74 726 -62 q 68 133 79 -32 l 68 151 q 288 436 68 285 q 144 660 144 526 q 442 928 144 800 q 610 960 501 960 z "},"F":{"ha":1031,"x_min":43,"x_max":968,"o":"m 540 982 q 697 825 660 982 q 540 657 556 746 q 513 589 513 608 l 529 589 q 740 556 672 556 q 939 575 774 556 l 968 538 l 968 526 q 740 469 865 469 l 700 469 q 538 521 583 521 q 424 342 453 521 q 319 -82 353 51 l 299 -92 q 288 -62 288 -74 q 388 475 288 89 q 242 353 347 461 q 231 367 242 367 q 418 569 263 442 q 613 882 481 831 l 613 896 l 529 896 q 97 654 225 914 l 97 638 l 114 629 l 193 629 l 244 621 l 244 600 l 193 589 l 103 589 q 43 672 43 621 l 43 683 q 361 974 43 885 q 469 982 429 982 l 540 982 z "},"G":{"ha":960,"x_min":65,"x_max":868,"o":"m 561 979 q 797 871 681 985 l 797 825 q 667 672 803 729 l 657 672 l 657 686 q 743 860 740 776 q 583 917 743 903 q 199 543 376 908 q 160 331 165 424 q 339 65 171 57 q 700 315 410 68 q 768 347 732 347 l 776 347 q 846 106 868 350 q 779 -171 860 54 l 749 -174 q 513 -19 683 -176 l 510 6 l 524 6 q 697 -92 660 -94 q 779 182 779 38 l 786 265 l 782 265 l 439 -14 q 399 -25 421 -25 l 350 -28 q 76 347 88 57 q 399 933 65 649 q 561 979 493 976 m 538 432 q 703 429 610 429 l 800 429 q 868 401 868 429 l 868 372 q 868 339 868 350 l 868 319 q 863 190 868 285 l 843 68 q 822 43 843 43 l 817 43 q 794 68 794 43 l 794 182 q 806 333 794 285 q 794 333 792 344 l 703 347 q 543 350 610 347 q 399 347 504 347 l 396 347 q 375 399 356 367 l 375 401 q 410 429 375 429 q 538 432 513 429 z "},"H":{"ha":1135,"x_min":63,"x_max":1050,"o":"m 307 1007 q 458 879 396 1007 q 361 489 404 714 q 843 543 843 515 q 950 953 840 632 l 988 953 q 1050 879 1047 911 q 963 447 1042 447 q 897 301 896 447 q 888 -17 882 174 q 868 -79 888 -43 q 806 89 817 -79 l 814 142 l 814 174 q 825 447 811 310 l 678 447 q 344 396 342 447 q 228 -57 274 -57 l 217 -57 q 65 217 114 -57 q 282 469 63 350 q 350 900 282 513 q 310 911 328 900 q 176 806 263 903 l 176 828 q 288 1007 250 1007 l 307 1007 m 982 833 q 917 524 922 632 l 944 518 q 993 817 993 751 l 993 833 l 982 833 m 114 163 q 168 6 117 122 q 265 396 222 6 q 114 196 111 274 l 114 163 z "},"I":{"ha":514,"x_min":29,"x_max":489,"o":"m 396 960 q 458 900 489 939 l 456 893 l 439 890 q 384 883 426 890 q 296 876 342 876 q 265 14 279 464 l 388 6 l 415 8 q 486 -19 456 11 l 483 -37 q 375 -60 472 -60 l 328 -62 q 179 -14 206 -62 q 201 846 201 635 l 203 860 q 288 950 176 960 l 396 960 m 103 950 q 174 950 133 953 q 225 950 208 947 q 350 950 258 950 q 369 931 369 933 l 372 908 q 350 888 364 896 l 285 885 q 228 888 265 882 q 176 879 211 885 q 63 896 63 871 q 60 897 60 896 l 57 919 q 88 953 63 942 l 103 950 m 51 8 q 288 8 131 11 q 358 -17 347 11 l 358 -35 q 339 -54 353 -49 l 318 -57 l 310 -51 l 271 -54 q 49 -49 225 -51 q 32 -29 32 -35 l 29 -11 q 51 8 40 8 z "},"J":{"ha":754,"x_min":85,"x_max":689,"o":"m 518 415 q 603 908 603 746 l 592 908 q 182 825 439 908 q 97 817 119 817 q 89 843 89 833 q 504 979 151 922 q 556 982 529 982 q 689 885 618 988 l 689 831 q 606 432 689 760 l 569 344 q 247 -74 481 46 l 203 -74 q 85 35 119 -74 q 206 282 85 160 q 297 366 274 356 q 319 343 319 376 q 244 220 318 310 q 157 25 171 131 q 214 -11 174 -14 q 464 265 382 82 q 518 415 483 313 z "},"K":{"ha":888,"x_min":94,"x_max":836,"o":"m 214 1019 q 361 890 296 1019 q 199 196 279 714 l 171 -71 l 142 -71 q 94 -8 119 -65 q 256 947 139 426 l 242 956 l 222 956 l 131 947 l 131 965 q 214 1019 163 1019 m 640 982 q 746 888 722 982 l 746 879 q 336 467 711 794 q 509 283 415 467 q 640 92 603 100 q 708 85 678 85 q 794 149 794 85 q 783 188 783 163 l 797 188 q 836 74 831 188 q 724 -6 825 -6 q 372 401 561 -28 l 347 418 l 313 418 q 228 401 288 418 l 217 421 q 407 583 342 513 q 660 944 643 854 q 640 963 640 944 l 640 982 z "},"L":{"ha":954,"x_min":85,"x_max":917,"o":"m 469 1019 q 613 885 561 1019 q 413 700 613 760 q 318 176 367 325 q 594 32 472 32 q 893 106 865 106 l 917 74 q 692 -54 917 43 q 635 -62 660 -62 q 310 139 489 -49 q 211 -62 263 -62 q 85 89 85 14 q 206 217 85 171 l 253 217 q 390 971 336 782 q 436 1019 429 1019 l 469 1019 m 429 732 q 567 908 567 819 q 510 963 567 953 q 421 732 447 963 l 429 732 m 125 57 q 174 -8 146 3 q 236 160 206 -8 l 228 160 q 125 57 165 160 z "},"M":{"ha":1267,"x_min":46,"x_max":1218,"o":"m 540 1014 q 638 903 635 971 q 567 331 549 678 q 819 843 729 703 q 953 968 896 965 l 988 971 q 1069 879 1067 928 q 968 157 953 481 q 996 100 982 97 q 1164 174 1088 106 l 1193 176 q 1215 154 1215 174 l 1218 122 q 1074 -6 1139 0 q 868 225 931 -17 q 953 860 882 649 l 950 860 q 643 293 782 738 q 589 203 606 203 l 581 201 q 504 369 532 199 q 535 874 504 754 l 529 885 q 249 387 328 581 q 103 -65 171 193 l 82 -68 q 49 -35 68 -68 q 325 757 46 51 q 540 1014 461 1010 z "},"N":{"ha":1063,"x_min":43,"x_max":963,"o":"m 401 976 q 535 871 450 953 l 529 794 l 535 719 q 686 97 546 529 l 692 97 l 885 996 l 917 999 q 963 931 960 976 q 885 660 931 840 q 810 201 840 481 q 743 -79 779 -79 l 724 -79 q 546 263 665 -82 q 447 760 456 626 l 444 800 l 432 797 q 196 293 296 618 q 88 -62 108 -60 l 76 -62 q 43 -17 51 -62 q 310 819 128 222 q 401 976 367 974 z "},"O":{"ha":1151,"x_min":74,"x_max":1064,"o":"m 529 1014 q 789 843 782 990 q 893 675 843 849 q 1044 760 1028 757 l 1064 732 q 890 564 965 613 q 643 14 817 165 q 464 -82 540 -76 l 399 -85 q 138 60 203 -82 q 89 313 74 203 q 279 871 74 581 q 510 1014 410 1007 l 529 1014 m 188 244 q 339 14 201 6 l 367 14 q 806 558 643 29 q 649 735 654 624 l 646 754 q 722 879 640 874 l 732 879 l 751 871 l 749 879 q 615 956 711 960 l 589 953 q 225 535 385 942 q 188 244 196 421 m 735 675 q 746 638 735 669 l 819 643 l 825 689 q 782 808 806 808 l 774 806 q 735 675 732 806 z "},"P":{"ha":922,"x_min":40,"x_max":879,"o":"m 496 1010 q 857 803 792 982 q 868 689 879 751 q 649 396 839 456 l 600 388 q 339 456 478 382 q 274 65 268 356 l 282 38 l 526 307 l 550 307 q 336 -11 550 279 q 288 -117 307 -114 l 276 -117 q 193 -14 196 -71 l 190 3 q 247 398 185 136 q 364 794 310 660 l 358 794 l 315 776 q 304 786 315 786 q 375 888 350 888 q 489 811 450 857 l 489 792 q 361 478 356 629 q 496 458 435 456 l 546 458 q 737 599 697 489 q 758 795 776 708 q 529 919 740 882 l 439 917 q 94 722 188 908 l 94 706 q 188 635 97 654 l 190 613 l 157 610 q 40 738 43 667 q 496 1010 131 999 z "},"Q":{"ha":1082,"x_min":76,"x_max":1050,"o":"m 507 1013 q 817 908 711 1017 q 922 615 933 782 q 895 350 922 529 q 749 76 868 171 q 882 35 760 43 q 1014 82 911 35 l 1022 82 q 1050 35 1042 82 q 900 -74 963 -74 q 703 43 819 -62 q 453 -49 608 -37 q 85 290 139 -40 q 76 379 85 301 q 358 965 76 779 q 483 1013 461 1013 l 507 1013 m 154 322 q 190 199 176 190 q 461 364 353 364 q 689 182 550 364 q 857 697 857 322 q 803 843 836 806 q 658 917 729 900 q 521 940 586 933 q 313 805 456 947 q 154 322 171 663 m 217 136 q 382 54 242 68 l 435 54 q 638 144 526 54 l 638 154 q 489 290 569 290 l 453 290 q 217 136 342 290 z "},"R":{"ha":1001,"x_min":117,"x_max":974,"o":"m 521 1013 q 808 774 703 1013 q 819 700 819 738 l 819 683 q 532 418 819 532 l 469 410 q 729 51 524 361 q 854 25 776 25 l 933 25 q 974 -14 950 25 l 974 -22 q 874 -62 974 -51 l 817 -62 q 461 372 675 -62 q 328 410 404 410 q 182 -133 268 296 l 160 -133 q 117 -94 144 -133 l 117 -86 q 361 751 231 439 l 356 751 l 304 743 l 304 765 q 356 811 304 779 q 456 726 444 774 q 339 450 339 469 l 344 450 q 724 719 592 450 l 724 754 q 581 925 724 925 l 550 925 q 163 726 271 925 l 163 643 l 149 643 q 117 700 117 654 l 117 746 q 364 974 117 860 q 521 1013 461 1013 z "},"S":{"ha":754,"x_min":57,"x_max":689,"o":"m 385 999 q 610 843 603 968 l 613 792 q 594 771 613 774 q 467 925 569 931 q 293 743 285 893 q 549 396 304 549 q 686 214 683 279 l 689 206 q 361 -65 649 -8 l 333 -68 q 103 60 182 -85 l 57 146 q 76 168 60 165 l 88 168 q 190 32 117 171 q 268 19 206 35 q 510 117 393 38 q 578 206 575 168 q 578 276 581 244 q 336 493 575 307 q 193 776 201 629 l 193 786 q 385 999 179 988 z "},"T":{"ha":1004,"x_min":57,"x_max":933,"o":"m 336 999 q 546 922 379 999 l 569 922 q 865 965 754 922 q 933 903 908 950 q 708 831 797 851 q 567 379 629 724 q 524 -62 524 100 l 492 -82 q 432 14 432 -49 q 618 822 501 643 l 624 831 q 379 917 597 831 l 367 917 q 111 708 111 863 l 111 689 q 131 603 111 667 l 114 603 q 57 717 57 638 l 57 786 q 293 999 57 939 l 336 999 z "},"U":{"ha":1118,"x_min":46,"x_max":1064,"o":"m 358 1014 q 510 900 510 953 q 296 244 296 483 q 396 14 296 14 l 404 14 q 768 583 549 14 q 919 911 836 849 l 928 911 q 979 863 944 911 q 800 347 800 478 l 800 319 q 885 97 800 214 q 1031 228 896 97 l 1042 228 q 1064 206 1064 225 q 957 8 993 8 l 939 8 q 729 271 825 8 l 724 271 q 442 -76 594 -76 q 225 179 313 -76 q 214 244 225 231 q 410 906 214 393 l 404 906 q 97 714 190 906 l 97 697 q 171 717 154 717 l 182 694 l 182 675 q 122 646 174 646 q 46 732 46 683 q 282 996 100 893 q 358 1014 310 996 z "},"V":{"ha":1039,"x_min":40,"x_max":925,"o":"m 849 1001 q 925 925 911 965 q 706 174 925 708 q 421 -74 546 -74 l 401 -74 q 222 222 263 -74 l 222 279 q 299 811 222 483 l 279 811 q 60 610 108 732 l 40 610 l 40 621 q 279 925 97 803 q 318 933 285 925 q 401 849 401 896 q 288 268 288 549 l 288 211 q 344 3 307 3 l 356 3 q 811 792 569 3 l 822 857 l 754 782 l 743 782 q 697 849 697 811 q 849 1001 782 1001 z "},"W":{"ha":1263,"x_min":29,"x_max":1183,"o":"m 401 953 q 538 849 538 903 q 313 114 313 489 q 342 19 318 19 q 675 610 513 214 l 694 621 q 743 581 708 621 q 724 247 724 475 q 774 19 724 144 l 782 19 q 1056 310 893 19 q 1104 592 1104 447 l 1104 672 q 1067 808 1096 808 l 988 808 q 840 911 890 808 q 897 933 874 933 l 947 933 q 1172 735 1076 933 q 1183 651 1183 678 q 919 -51 1183 92 q 840 -74 857 -74 q 665 342 665 -22 l 665 393 l 654 393 q 401 -74 553 40 l 353 -74 q 244 154 244 11 q 401 828 244 339 l 390 828 q 40 496 196 774 q 29 529 29 518 q 382 953 199 953 l 401 953 z "},"X":{"ha":1113,"x_min":40,"x_max":1061,"o":"m 313 1013 q 610 543 513 1013 l 608 543 q 868 933 774 933 q 993 849 988 922 q 974 749 1013 760 l 963 776 l 944 828 q 928 860 947 854 l 890 860 q 638 444 779 749 q 792 89 703 157 q 849 82 803 82 l 874 82 q 1044 201 990 82 l 1061 163 l 1061 151 q 933 -32 1019 -32 q 882 -40 933 -40 q 581 342 711 -17 l 583 342 q 239 -79 413 -14 l 219 -79 q 74 92 103 -79 l 74 142 q 106 168 76 168 q 174 6 125 6 q 486 315 379 88 q 550 444 550 444 q 382 908 453 908 l 331 908 q 60 683 219 890 l 40 683 q 276 1013 40 851 l 313 1013 z "},"Y":{"ha":1003,"x_min":51,"x_max":965,"o":"m 268 1025 q 390 928 388 985 q 347 754 350 911 l 353 665 q 388 475 356 569 l 393 475 q 700 960 603 933 q 811 990 700 979 q 965 865 963 947 q 808 819 906 819 q 749 851 760 819 q 868 906 849 885 l 868 908 l 819 908 q 556 694 683 908 l 418 336 q 396 63 393 165 l 401 -65 q 376 -86 401 -86 l 358 -86 q 296 -8 304 -51 q 375 421 290 111 q 288 626 293 496 l 285 719 q 293 944 282 794 l 293 944 q 71 833 203 944 l 51 833 l 51 849 q 268 1025 176 1025 z "},"Z":{"ha":1107,"x_min":74,"x_max":993,"o":"m 353 1010 q 524 846 385 1010 l 564 843 q 849 936 603 843 l 860 936 q 925 876 928 893 l 925 865 q 786 779 811 803 q 450 201 529 350 q 768 82 567 88 l 965 97 l 993 57 l 993 28 q 806 -37 990 -17 q 429 160 615 -32 q 247 -74 304 -35 l 188 -74 q 85 79 74 -37 q 322 263 163 268 q 390 242 372 242 q 686 771 667 729 l 621 754 q 369 944 513 757 q 339 956 350 956 q 182 825 185 900 l 163 825 l 163 836 q 353 1010 242 1013 m 142 19 q 171 -11 142 6 q 342 182 307 79 l 331 182 q 142 38 146 154 l 142 19 z "},"a":{"ha":660,"x_min":76,"x_max":651,"o":"m 415 603 q 558 467 558 561 q 507 388 532 388 l 496 407 l 496 515 q 478 535 496 535 q 157 76 258 535 l 157 8 l 168 8 q 496 369 271 46 l 518 379 q 558 331 558 336 q 496 57 496 163 l 496 -3 q 651 76 518 -3 l 651 57 q 518 -71 651 22 q 435 38 435 -32 q 456 185 435 74 l 456 193 l 444 193 q 208 -71 307 -71 l 201 -71 q 76 65 111 -71 l 76 76 q 231 515 76 276 q 385 603 331 603 l 415 603 z "},"b":{"ha":650,"x_min":106,"x_max":615,"o":"m 282 1014 q 393 925 361 979 l 393 906 q 228 390 333 849 l 228 379 l 239 379 q 413 496 299 496 l 424 496 q 615 313 615 453 q 313 -74 606 68 q 228 -79 274 -79 q 106 -11 146 -79 l 106 19 q 293 917 117 382 q 261 925 271 925 l 211 917 l 211 925 q 282 1014 242 1014 m 179 0 q 515 253 435 11 q 535 379 535 310 q 464 429 521 429 q 188 97 188 429 q 168 0 179 97 l 179 0 z "},"c":{"ha":661,"x_min":60,"x_max":556,"o":"m 331 606 q 556 456 493 613 q 407 318 507 322 l 376 315 l 376 344 q 489 493 492 436 l 486 510 q 418 538 486 529 l 361 535 q 128 151 171 524 l 131 103 q 203 -8 136 17 q 486 142 301 -3 l 493 144 q 515 125 513 142 l 515 97 q 285 -76 376 -71 l 250 -79 q 65 125 74 -17 l 60 182 q 331 606 103 592 z "},"d":{"ha":824,"x_min":79,"x_max":726,"o":"m 646 1001 q 711 944 660 1001 l 711 928 q 550 131 532 442 l 575 28 q 708 142 632 54 q 726 125 726 139 q 635 -74 665 -54 q 483 136 529 -79 l 481 160 q 486 239 478 193 l 483 247 l 475 247 q 293 -51 376 -46 l 250 -54 q 106 81 133 -32 q 94 315 79 193 q 233 496 108 436 q 489 439 388 529 l 499 439 q 621 999 624 928 l 646 1001 m 157 176 q 201 29 171 100 l 228 32 q 467 404 353 40 q 299 439 461 461 q 157 176 185 435 z "},"e":{"ha":719,"x_min":54,"x_max":638,"o":"m 367 606 l 435 600 q 518 529 489 594 l 518 518 q 201 253 501 319 l 190 253 l 144 265 l 131 199 l 131 188 q 185 40 119 46 l 279 22 q 608 214 393 25 q 638 179 624 211 q 372 -60 629 74 q 263 -74 333 -79 l 253 -74 q 54 174 60 -28 l 57 225 q 315 597 76 464 l 367 606 m 168 313 q 439 504 444 379 q 407 518 410 515 q 168 318 268 550 l 168 313 z "},"f":{"ha":575,"x_min":29,"x_max":543,"o":"m 442 1004 q 540 919 538 993 l 540 908 l 524 906 q 486 965 492 985 l 464 965 q 350 681 399 965 l 350 629 l 453 640 q 543 597 540 638 q 344 572 439 572 l 344 561 q 176 -103 307 -97 q 29 242 76 -106 l 40 242 q 122 14 63 228 q 163 -43 151 -43 q 265 556 236 154 l 144 556 q 49 600 40 553 q 65 606 57 606 q 271 626 179 608 q 393 1001 285 956 l 442 1004 z "},"g":{"ha":638,"x_min":60,"x_max":592,"o":"m 347 600 q 535 450 475 600 l 535 413 q 372 304 467 322 l 361 325 q 467 467 467 410 l 467 493 q 382 535 467 518 q 199 253 247 535 l 199 236 l 222 188 q 404 274 236 176 q 461 217 461 253 l 435 74 q 572 142 538 142 q 592 119 592 139 q 372 -133 372 -14 q 188 -328 290 -328 l 151 -328 q 60 -247 60 -318 l 60 -239 q 342 8 74 -211 q 382 176 350 28 q 239 119 293 119 q 131 296 142 119 q 339 600 179 600 l 347 600 m 146 -274 q 304 -111 247 -287 q 128 -268 256 -139 l 146 -274 z "},"h":{"ha":724,"x_min":74,"x_max":635,"o":"m 456 1001 q 529 925 529 976 l 529 917 q 304 640 499 779 q 176 211 231 493 q 165 201 176 206 l 165 196 l 174 196 q 499 543 339 501 l 515 543 q 613 458 600 493 l 613 444 q 507 92 507 290 l 507 32 q 626 106 592 106 l 635 106 l 635 92 q 515 -65 635 54 l 499 -65 q 432 32 432 -14 l 432 54 q 529 467 432 182 l 524 467 q 168 106 333 467 q 117 -74 133 -74 l 108 -74 q 74 -6 74 -57 q 231 663 139 407 q 456 1001 385 993 m 342 722 q 486 947 486 865 q 342 722 413 879 z "},"i":{"ha":388,"x_min":79,"x_max":331,"o":"m 185 817 q 331 694 279 782 l 331 686 l 315 678 q 111 735 239 711 l 94 726 l 79 735 q 185 817 125 817 m 185 575 q 318 467 250 550 q 168 100 168 333 l 168 28 q 282 133 196 38 l 301 133 l 301 125 q 176 -71 301 79 l 160 -71 q 94 28 94 -22 q 185 442 119 236 l 176 442 q 88 418 114 418 l 185 575 z "},"j":{"ha":513,"x_min":28,"x_max":483,"o":"m 331 828 q 483 722 396 828 l 483 711 q 453 692 483 692 q 296 726 401 726 q 265 717 279 717 q 331 828 296 828 m 375 558 q 475 469 447 524 q 342 60 413 382 l 315 -25 q 136 -325 233 -325 q 28 -236 65 -325 q 258 22 28 -151 q 372 447 318 203 l 364 447 q 188 310 276 492 l 157 310 q 131 364 131 318 l 131 375 q 375 558 242 532 m 92 -276 q 219 -86 176 -276 l 217 -86 q 76 -268 76 -193 l 92 -276 z "},"k":{"ha":706,"x_min":71,"x_max":660,"o":"m 347 1017 q 467 911 461 990 q 290 735 385 740 l 250 735 q 163 261 182 496 l 163 253 l 171 256 q 421 572 217 421 q 469 583 426 572 q 564 489 558 546 q 342 247 569 396 q 526 19 450 168 q 657 -29 657 0 q 635 -57 660 -40 l 561 -60 q 369 176 450 -3 q 276 228 319 231 l 261 225 q 146 -43 133 219 l 146 -60 q 133 -76 149 -76 q 71 -6 74 -37 q 347 1017 142 960 m 279 783 q 407 965 410 885 l 399 963 q 271 783 333 960 l 279 783 m 217 274 l 258 282 q 290 276 276 285 q 481 501 486 410 l 472 501 q 217 282 364 493 l 217 274 z "},"l":{"ha":638,"x_min":92,"x_max":550,"o":"m 385 1014 q 481 942 436 1014 l 481 896 q 293 660 481 783 q 160 89 160 279 l 160 60 l 168 8 q 532 313 285 8 q 550 293 550 310 q 285 -43 550 206 q 203 -76 222 -76 q 92 97 111 -76 q 217 651 92 256 l 208 667 q 375 1014 319 990 l 385 1014 m 333 763 q 429 956 429 836 q 333 763 390 956 z "},"m":{"ha":922,"x_min":51,"x_max":863,"o":"m 535 336 q 510 228 510 263 l 529 239 l 529 228 q 464 35 478 35 q 421 94 421 63 q 518 486 421 122 l 518 492 q 310 353 435 492 l 310 369 l 342 432 l 342 439 q 228 193 228 310 l 228 185 l 239 185 q 244 239 239 190 l 263 239 q 185 -60 206 -60 l 176 -60 q 133 8 133 -37 q 256 486 133 139 l 244 486 q 68 404 68 461 l 51 404 l 51 424 q 228 600 51 524 q 361 467 361 510 q 492 572 444 572 q 597 492 535 572 q 564 415 578 450 q 724 597 635 526 q 863 489 800 586 q 724 68 724 290 l 724 60 l 732 60 q 831 182 732 89 q 857 157 840 182 l 857 146 q 760 -74 857 88 l 724 -74 q 626 60 626 -8 q 751 510 663 263 q 535 336 665 510 z "},"n":{"ha":785,"x_min":40,"x_max":760,"o":"m 299 603 q 421 499 375 569 q 265 217 265 293 l 265 211 l 271 211 q 550 543 396 475 q 665 447 621 518 l 665 436 q 546 25 546 263 l 550 25 q 703 136 600 40 q 760 108 760 131 l 760 79 q 569 -74 735 79 l 558 -74 q 481 29 481 -32 l 481 74 q 556 444 481 228 l 550 444 q 242 65 369 444 q 222 -65 222 -17 l 203 -65 q 168 -29 190 -65 l 168 -3 q 293 504 168 139 l 288 504 q 79 369 199 504 l 68 369 q 40 396 54 369 l 40 424 l 51 424 l 68 418 q 299 603 228 603 z "},"o":{"ha":689,"x_min":60,"x_max":621,"o":"m 603 421 q 592 410 603 410 q 621 333 621 342 q 350 -65 621 131 q 313 -74 333 -74 l 293 -74 q 60 149 89 -89 l 60 188 q 268 575 60 447 q 449 597 339 615 q 603 439 558 578 l 603 421 m 157 97 q 211 46 188 46 l 242 46 q 546 304 385 32 l 553 372 l 553 390 q 467 478 467 469 l 467 489 l 478 489 l 553 439 l 553 447 q 429 515 549 507 l 418 515 q 213 370 279 518 q 151 174 146 222 q 157 97 157 125 z "},"p":{"ha":774,"x_min":35,"x_max":686,"o":"m 211 654 q 375 564 271 660 l 376 549 q 304 401 313 469 l 307 393 l 315 393 q 453 594 299 450 l 492 600 q 686 461 583 608 l 686 453 q 421 103 640 128 l 401 103 q 265 176 318 92 q 201 -231 242 174 q 190 -333 188 -319 l 182 -333 q 131 -310 144 -319 q 261 543 182 51 l 253 543 q 79 399 144 532 q 60 415 60 399 l 57 424 q 211 654 35 447 m 279 222 q 350 157 344 203 l 358 160 q 578 376 521 176 q 575 475 581 439 l 572 510 l 526 515 l 510 513 q 271 219 344 472 l 279 222 z "},"q":{"ha":578,"x_min":60,"x_max":521,"o":"m 325 608 q 513 453 513 567 l 493 442 l 483 442 l 435 524 q 356 549 393 549 l 331 549 q 157 261 174 549 l 157 199 q 450 447 208 203 q 521 390 492 435 l 521 364 q 328 -154 328 136 l 481 -11 l 492 -32 q 318 -333 385 -117 l 307 -333 q 242 -250 242 -299 q 375 265 242 -128 q 196 111 236 111 q 79 301 79 157 l 79 310 q 182 569 60 421 q 325 608 250 610 z "},"r":{"ha":760,"x_min":85,"x_max":717,"o":"m 282 629 q 421 532 372 600 l 421 524 q 328 313 328 399 l 325 319 q 501 538 376 450 l 561 558 l 581 561 q 717 481 686 583 l 700 469 q 578 472 606 475 q 319 100 322 456 q 288 -79 304 -76 l 276 -79 q 219 -3 222 -51 q 307 515 211 128 l 288 515 q 122 415 176 507 l 103 415 q 85 432 88 413 l 85 447 q 282 629 190 606 z "},"s":{"ha":646,"x_min":40,"x_max":546,"o":"m 390 603 q 546 467 489 603 q 496 376 524 376 l 489 376 l 469 388 q 489 493 489 426 l 489 504 q 429 535 478 535 q 361 436 361 504 l 361 388 q 510 133 361 310 l 546 60 l 529 28 q 296 -82 450 -82 l 285 -82 q 63 85 114 -82 q 40 144 40 136 l 63 151 q 188 17 151 17 q 236 6 236 17 q 432 125 432 40 q 293 339 432 157 q 263 456 263 410 q 372 603 282 603 l 390 603 z "},"t":{"ha":583,"x_min":57,"x_max":496,"o":"m 353 1001 q 483 896 450 957 l 483 885 q 339 649 396 794 l 347 649 q 415 669 367 649 q 496 621 493 643 l 496 610 q 293 532 496 597 q 193 51 188 244 l 193 22 q 432 228 276 63 l 442 206 q 196 -76 282 -76 l 176 -76 q 106 32 106 -25 q 196 501 103 117 q 57 610 122 501 l 65 629 l 125 600 q 250 632 263 608 q 336 865 288 732 l 325 865 q 231 817 285 851 l 219 817 l 219 828 q 353 1001 265 900 z "},"u":{"ha":767,"x_min":51,"x_max":732,"o":"m 282 629 q 388 543 322 629 l 388 532 q 231 76 231 361 l 231 38 q 244 22 233 22 q 608 564 353 131 l 626 564 q 667 524 643 564 l 667 504 q 583 179 583 358 q 618 40 594 40 q 703 117 657 94 l 711 117 q 732 94 732 111 q 638 -49 681 -49 q 513 168 513 29 q 543 347 513 217 l 543 353 l 538 353 q 285 -76 358 -46 l 274 -76 q 142 94 179 -76 l 142 114 q 268 521 142 265 l 265 521 q 76 344 176 499 l 76 333 l 51 333 q 274 629 157 578 l 282 629 z "},"v":{"ha":713,"x_min":57,"x_max":667,"o":"m 256 606 q 350 510 299 606 q 271 228 271 421 l 271 201 q 299 -6 271 94 q 589 501 435 46 q 597 538 597 532 l 453 458 q 418 510 418 501 q 597 606 418 567 q 667 546 660 578 q 350 -82 475 -82 q 219 133 242 -82 l 219 244 q 247 493 219 356 l 236 493 q 74 364 100 436 l 57 364 q 256 606 108 521 z "},"w":{"ha":1004,"x_min":46,"x_max":928,"o":"m 244 600 q 364 501 319 600 q 236 65 236 304 l 236 11 l 244 11 q 567 469 372 57 l 578 469 l 615 436 q 608 217 608 290 l 608 43 l 615 43 q 851 350 735 -3 l 871 447 q 665 546 871 496 l 665 578 q 683 600 667 600 q 928 415 928 558 l 928 404 q 689 -62 879 -43 q 683 -54 694 -54 q 538 131 572 -54 l 538 163 q 549 285 538 208 l 549 296 l 538 296 q 265 -76 404 -76 q 168 97 190 -76 q 256 501 168 208 l 244 501 q 57 393 193 524 l 46 415 q 236 600 165 621 l 244 600 z "},"x":{"ha":814,"x_min":25,"x_max":675,"o":"m 586 618 q 667 526 667 583 q 615 413 649 413 l 586 413 l 610 521 l 610 521 q 418 293 453 396 q 543 49 486 49 l 654 236 q 675 211 675 231 q 589 -28 646 46 l 578 -28 q 407 144 515 -25 q 375 206 375 214 q 211 -92 333 149 l 171 -100 q 25 28 122 -100 q 38 38 38 28 q 117 -19 85 11 l 151 -19 q 353 296 244 68 q 288 478 296 478 l 231 481 q 108 418 185 504 l 85 418 q 206 561 85 501 l 256 567 q 382 372 342 567 q 575 618 442 475 l 586 618 z "},"y":{"ha":703,"x_min":76,"x_max":643,"o":"m 263 643 q 379 556 325 643 q 290 225 290 442 l 290 203 l 301 154 q 594 518 436 276 l 606 518 l 643 469 q 515 106 581 364 l 526 106 q 546 136 546 106 l 564 136 l 564 128 q 436 -128 469 19 q 313 -322 393 -262 l 290 -322 q 193 -225 193 -310 q 436 49 193 -142 l 496 244 q 319 79 367 79 q 222 274 222 125 q 263 546 233 413 q 88 439 182 546 l 76 439 q 253 643 160 643 l 263 643 m 233 -274 l 263 -274 q 410 -40 322 -274 q 233 -244 233 -171 l 233 -274 z "},"z":{"ha":708,"x_min":54,"x_max":665,"o":"m 458 600 q 589 483 526 597 q 458 429 578 469 q 157 54 165 196 q 261 100 228 100 q 439 19 415 19 l 501 14 q 638 17 550 11 q 663 -46 665 -25 q 543 -89 632 -79 q 285 38 450 -85 q 106 -82 228 40 q 54 -8 68 -54 q 415 461 146 250 l 426 483 l 407 483 q 160 436 336 489 q 106 492 122 453 q 458 600 108 510 z "}}}
